<svg aria-roledescription="er" role="graphics-document document" viewBox="0 0 1211.3438720703125 873.046875" height="873.046875" xmlns="http://www.w3.org/2000/svg" width="1211.3438720703125" id="tmpMermaidElement4431"><style>#tmpMermaidElement {background: white;}#tmpMermaidElement4431{font-family:"trebuchet ms",verdana,arial,sans-serif;font-size:16px;fill:#333;}#tmpMermaidElement4431 .error-icon{fill:#552222;}#tmpMermaidElement4431 .error-text{fill:#552222;stroke:#552222;}#tmpMermaidElement4431 .edge-thickness-normal{stroke-width:2px;}#tmpMermaidElement4431 .edge-thickness-thick{stroke-width:3.5px;}#tmpMermaidElement4431 .edge-pattern-solid{stroke-dasharray:0;}#tmpMermaidElement4431 .edge-pattern-dashed{stroke-dasharray:3;}#tmpMermaidElement4431 .edge-pattern-dotted{stroke-dasharray:2;}#tmpMermaidElement4431 .marker{fill:#333333;stroke:#333333;}#tmpMermaidElement4431 .marker.cross{stroke:#333333;}#tmpMermaidElement4431 svg{font-family:"trebuchet ms",verdana,arial,sans-serif;font-size:16px;}#tmpMermaidElement4431 .entityBox{fill:#ECECFF;stroke:#9370DB;}#tmpMermaidElement4431 .attributeBoxOdd{fill:#ffffff;stroke:#9370DB;}#tmpMermaidElement4431 .attributeBoxEven{fill:#f2f2f2;stroke:#9370DB;}#tmpMermaidElement4431 .relationshipLabelBox{fill:hsl(80, 100%, 96.2745098039%);opacity:0.7;background-color:hsl(80, 100%, 96.2745098039%);}#tmpMermaidElement4431 .relationshipLabelBox rect{opacity:0.5;}#tmpMermaidElement4431 .relationshipLine{stroke:#333333;}#tmpMermaidElement4431 .entityTitleText{text-anchor:middle;font-size:18px;fill:#333;}#tmpMermaidElement4431 #MD_PARENT_START{fill:#f5f5f5!important;stroke:#333333!important;stroke-width:1;}#tmpMermaidElement4431 #MD_PARENT_END{fill:#f5f5f5!important;stroke:#333333!important;stroke-width:1;}#tmpMermaidElement4431 :root{--mermaid-font-family:"trebuchet ms",verdana,arial,sans-serif;}</style><g></g><defs><marker orient="auto" markerHeight="240" markerWidth="190" refY="7" refX="0" id="MD_PARENT_START"><path d="M 18,7 L9,13 L1,7 L9,1 Z"></path></marker></defs><defs><marker orient="auto" markerHeight="28" markerWidth="20" refY="7" refX="19" id="MD_PARENT_END"><path d="M 18,7 L9,13 L1,7 L9,1 Z"></path></marker></defs><defs><marker orient="auto" markerHeight="18" markerWidth="18" refY="9" refX="0" id="ONLY_ONE_START"><path d="M9,0 L9,18 M15,0 L15,18" fill="none" stroke="gray"></path></marker></defs><defs><marker orient="auto" markerHeight="18" markerWidth="18" refY="9" refX="18" id="ONLY_ONE_END"><path d="M3,0 L3,18 M9,0 L9,18" fill="none" stroke="gray"></path></marker></defs><defs><marker orient="auto" markerHeight="18" markerWidth="30" refY="9" refX="0" id="ZERO_OR_ONE_START"><circle r="6" cy="9" cx="21" fill="white" stroke="gray"></circle><path d="M9,0 L9,18" fill="none" stroke="gray"></path></marker></defs><defs><marker orient="auto" markerHeight="18" markerWidth="30" refY="9" refX="30" id="ZERO_OR_ONE_END"><circle r="6" cy="9" cx="9" fill="white" stroke="gray"></circle><path d="M21,0 L21,18" fill="none" stroke="gray"></path></marker></defs><defs><marker orient="auto" markerHeight="36" markerWidth="45" refY="18" refX="18" id="ONE_OR_MORE_START"><path d="M0,18 Q 18,0 36,18 Q 18,36 0,18 M42,9 L42,27" fill="none" stroke="gray"></path></marker></defs><defs><marker orient="auto" markerHeight="36" markerWidth="45" refY="18" refX="27" id="ONE_OR_MORE_END"><path d="M3,9 L3,27 M9,18 Q27,0 45,18 Q27,36 9,18" fill="none" stroke="gray"></path></marker></defs><defs><marker orient="auto" markerHeight="36" markerWidth="57" refY="18" refX="18" id="ZERO_OR_MORE_START"><circle r="6" cy="18" cx="48" fill="white" stroke="gray"></circle><path d="M0,18 Q18,0 36,18 Q18,36 0,18" fill="none" stroke="gray"></path></marker></defs><defs><marker orient="auto" markerHeight="36" markerWidth="57" refY="18" refX="39" id="ZERO_OR_MORE_END"><circle r="6" cy="18" cx="9" fill="white" stroke="gray"></circle><path d="M21,18 Q39,0 57,18 Q39,36 21,18" fill="none" stroke="gray"></path></marker></defs><path style="stroke: gray; fill: none;" marker-start="url(#ONLY_ONE_START)" marker-end="url(#ZERO_OR_MORE_END)" d="M317.492,534.031L317.492,550.365C317.492,566.698,317.492,599.365,334.016,630.567C350.539,661.77,383.586,691.508,400.11,706.378L416.634,721.247" class="er relationshipLine"></path><path style="stroke: gray; fill: none;" marker-start="url(#ONLY_ONE_START)" marker-end="url(#ZERO_OR_MORE_END)" d="M622.746,263.016L627.145,271.349C631.543,279.682,640.341,296.349,644.74,317.016C649.139,337.682,649.139,362.349,649.139,374.682L649.139,387.016" class="er relationshipLine"></path><path style="stroke: gray; fill: none;" marker-start="url(#ONLY_ONE_START)" marker-end="url(#ZERO_OR_MORE_END)" d="M494.469,263.016L490.07,271.349C485.671,279.682,476.874,296.349,472.475,331.267C468.076,366.185,468.076,419.354,468.076,472.523C468.076,525.693,468.076,578.862,468.076,617.78C468.076,656.698,468.076,681.365,468.076,693.698L468.076,706.031" class="er relationshipLine"></path><path style="stroke: gray; fill: none;" marker-start="url(#ONLY_ONE_START)" marker-end="url(#ZERO_OR_MORE_END)" d="M459.435,178.074L398.439,200.564C337.442,223.054,215.448,268.035,154.451,298.859C93.454,329.682,93.454,346.349,93.454,354.682L93.454,363.016" class="er relationshipLine"></path><path style="stroke: gray; fill: none;" marker-start="url(#ONLY_ONE_START)" marker-end="url(#ZERO_OR_MORE_END)" d="M459.435,212.05L435.778,228.877C412.121,245.705,364.806,279.36,341.149,312.521C317.492,345.682,317.492,378.349,317.492,394.682L317.492,411.016" class="er relationshipLine"></path><path style="stroke: gray; fill: none;" marker-start="url(#ONLY_ONE_START)" marker-end="url(#ZERO_OR_MORE_END)" d="M657.779,194.397L694.85,214.167C731.92,233.936,806.06,273.476,843.131,311.579C880.201,349.682,880.201,386.349,880.201,404.682L880.201,423.016" class="er relationshipLine"></path><path style="stroke: gray; fill: none;" marker-start="url(#ONLY_ONE_START)" marker-end="url(#ZERO_OR_MORE_END)" d="M657.779,172.312L733.278,195.762C808.777,219.213,959.775,266.114,1035.274,305.898C1110.772,345.682,1110.772,378.349,1110.772,394.682L1110.772,411.016" class="er relationshipLine"></path><path style="stroke: gray; fill: none;" marker-start="url(#ONLY_ONE_START)" marker-end="url(#ZERO_OR_MORE_END)" d="M1110.772,534.031L1110.772,550.365C1110.772,566.698,1110.772,599.365,1110.772,624.031C1110.772,648.698,1110.772,665.365,1110.772,673.698L1110.772,682.031" class="er relationshipLine"></path><g transform="translate(239.51852416992188,104 )" id="entity-CompanyInfo-7e5ec306-0258-5e1b-95d6-de2af11fc963"><rect height="75.015625" width="119.91693115234375" y="0" x="0" class="er entityBox"></rect><text style="dominant-baseline: middle; text-anchor: middle; font-size: 12px;" transform="translate(59.958465576171875,13.5078125)" y="0" x="0" id="text-entity-CompanyInfo-7e5ec306-0258-5e1b-95d6-de2af11fc963" class="er entityLabel">CompanyInfo</text><rect height="24" width="37.4693603515625" y="27.015625" x="0" class="er attributeBoxOdd"></rect><text style="dominant-baseline: middle; font-size: 10.2px;" transform="translate(5,39.015625)" y="0" x="0" id="text-entity-CompanyInfo-7e5ec306-0258-5e1b-95d6-de2af11fc963-attr-1-type" class="er entityLabel">string</text><rect height="24" width="82.44757080078125" y="27.015625" x="37.4693603515625" class="er attributeBoxOdd"></rect><text style="dominant-baseline: middle; font-size: 10.2px;" transform="translate(42.4693603515625,39.015625)" y="0" x="0" id="text-entity-CompanyInfo-7e5ec306-0258-5e1b-95d6-de2af11fc963-attr-1-name" class="er entityLabel">companyName</text><rect height="24" width="37.4693603515625" y="51.015625" x="0" class="er attributeBoxEven"></rect><text style="dominant-baseline: middle; font-size: 10.2px;" transform="translate(5,63.015625)" y="0" x="0" id="text-entity-CompanyInfo-7e5ec306-0258-5e1b-95d6-de2af11fc963-attr-2-type" class="er entityLabel">string</text><rect height="24" width="82.44757080078125" y="51.015625" x="37.4693603515625" class="er attributeBoxEven"></rect><text style="dominant-baseline: middle; font-size: 10.2px;" transform="translate(42.4693603515625,63.015625)" y="0" x="0" id="text-entity-CompanyInfo-7e5ec306-0258-5e1b-95d6-de2af11fc963-attr-2-name" class="er entityLabel">ycURL</text></g><g transform="translate(20,363.015625 )" id="entity-Job-7d110984-6e7e-5c4b-993b-9f7e6b56ce9b"><rect height="219.015625" width="146.90768432617188" y="0" x="0" class="er entityBox"></rect><text style="dominant-baseline: middle; text-anchor: middle; font-size: 12px;" transform="translate(73.45384216308594,13.5078125)" y="0" x="0" id="text-entity-Job-7d110984-6e7e-5c4b-993b-9f7e6b56ce9b" class="er entityLabel">Job</text><rect height="24" width="48.880401611328125" y="27.015625" x="0" class="er attributeBoxOdd"></rect><text style="dominant-baseline: middle; font-size: 10.2px;" transform="translate(5,39.015625)" y="0" x="0" id="text-entity-Job-7d110984-6e7e-5c4b-993b-9f7e6b56ce9b-attr-1-type" class="er entityLabel">string</text><rect height="24" width="98.02728271484375" y="27.015625" x="48.880401611328125" class="er attributeBoxOdd"></rect><text style="dominant-baseline: middle; font-size: 10.2px;" transform="translate(53.880401611328125,39.015625)" y="0" x="0" id="text-entity-Job-7d110984-6e7e-5c4b-993b-9f7e6b56ce9b-attr-1-name" class="er entityLabel">role</text><rect height="24" width="48.880401611328125" y="51.015625" x="0" class="er attributeBoxEven"></rect><text style="dominant-baseline: middle; font-size: 10.2px;" transform="translate(5,63.015625)" y="0" x="0" id="text-entity-Job-7d110984-6e7e-5c4b-993b-9f7e6b56ce9b-attr-2-type" class="er entityLabel">string</text><rect height="24" width="98.02728271484375" y="51.015625" x="48.880401611328125" class="er attributeBoxEven"></rect><text style="dominant-baseline: middle; font-size: 10.2px;" transform="translate(53.880401611328125,63.015625)" y="0" x="0" id="text-entity-Job-7d110984-6e7e-5c4b-993b-9f7e6b56ce9b-attr-2-name" class="er entityLabel">location</text><rect height="24" width="48.880401611328125" y="75.015625" x="0" class="er attributeBoxOdd"></rect><text style="dominant-baseline: middle; font-size: 10.2px;" transform="translate(5,87.015625)" y="0" x="0" id="text-entity-Job-7d110984-6e7e-5c4b-993b-9f7e6b56ce9b-attr-3-type" class="er entityLabel">number</text><rect height="24" width="98.02728271484375" y="75.015625" x="48.880401611328125" class="er attributeBoxOdd"></rect><text style="dominant-baseline: middle; font-size: 10.2px;" transform="translate(53.880401611328125,87.015625)" y="0" x="0" id="text-entity-Job-7d110984-6e7e-5c4b-993b-9f7e6b56ce9b-attr-3-name" class="er entityLabel">salaryBandStart</text><rect height="24" width="48.880401611328125" y="99.015625" x="0" class="er attributeBoxEven"></rect><text style="dominant-baseline: middle; font-size: 10.2px;" transform="translate(5,111.015625)" y="0" x="0" id="text-entity-Job-7d110984-6e7e-5c4b-993b-9f7e6b56ce9b-attr-4-type" class="er entityLabel">number</text><rect height="24" width="98.02728271484375" y="99.015625" x="48.880401611328125" class="er attributeBoxEven"></rect><text style="dominant-baseline: middle; font-size: 10.2px;" transform="translate(53.880401611328125,111.015625)" y="0" x="0" id="text-entity-Job-7d110984-6e7e-5c4b-993b-9f7e6b56ce9b-attr-4-name" class="er entityLabel">salaryBandEnd</text><rect height="24" width="48.880401611328125" y="123.015625" x="0" class="er attributeBoxOdd"></rect><text style="dominant-baseline: middle; font-size: 10.2px;" transform="translate(5,135.015625)" y="0" x="0" id="text-entity-Job-7d110984-6e7e-5c4b-993b-9f7e6b56ce9b-attr-5-type" class="er entityLabel">string</text><rect height="24" width="98.02728271484375" y="123.015625" x="48.880401611328125" class="er attributeBoxOdd"></rect><text style="dominant-baseline: middle; font-size: 10.2px;" transform="translate(53.880401611328125,135.015625)" y="0" x="0" id="text-entity-Job-7d110984-6e7e-5c4b-993b-9f7e6b56ce9b-attr-5-name" class="er entityLabel">salaryCurrency</text><rect height="24" width="48.880401611328125" y="147.015625" x="0" class="er attributeBoxEven"></rect><text style="dominant-baseline: middle; font-size: 10.2px;" transform="translate(5,159.015625)" y="0" x="0" id="text-entity-Job-7d110984-6e7e-5c4b-993b-9f7e6b56ce9b-attr-6-type" class="er entityLabel">number</text><rect height="24" width="98.02728271484375" y="147.015625" x="48.880401611328125" class="er attributeBoxEven"></rect><text style="dominant-baseline: middle; font-size: 10.2px;" transform="translate(53.880401611328125,159.015625)" y="0" x="0" id="text-entity-Job-7d110984-6e7e-5c4b-993b-9f7e6b56ce9b-attr-6-name" class="er entityLabel">equityBandStart</text><rect height="24" width="48.880401611328125" y="171.015625" x="0" class="er attributeBoxOdd"></rect><text style="dominant-baseline: middle; font-size: 10.2px;" transform="translate(5,183.015625)" y="0" x="0" id="text-entity-Job-7d110984-6e7e-5c4b-993b-9f7e6b56ce9b-attr-7-type" class="er entityLabel">number</text><rect height="24" width="98.02728271484375" y="171.015625" x="48.880401611328125" class="er attributeBoxOdd"></rect><text style="dominant-baseline: middle; font-size: 10.2px;" transform="translate(53.880401611328125,183.015625)" y="0" x="0" id="text-entity-Job-7d110984-6e7e-5c4b-993b-9f7e6b56ce9b-attr-7-name" class="er entityLabel">equityBandEnd</text><rect height="24" width="48.880401611328125" y="195.015625" x="0" class="er attributeBoxEven"></rect><text style="dominant-baseline: middle; font-size: 10.2px;" transform="translate(5,207.015625)" y="0" x="0" id="text-entity-Job-7d110984-6e7e-5c4b-993b-9f7e6b56ce9b-attr-8-type" class="er entityLabel">string</text><rect height="24" width="98.02728271484375" y="195.015625" x="48.880401611328125" class="er attributeBoxEven"></rect><text style="dominant-baseline: middle; font-size: 10.2px;" transform="translate(53.880401611328125,207.015625)" y="0" x="0" id="text-entity-Job-7d110984-6e7e-5c4b-993b-9f7e6b56ce9b-attr-8-name" class="er entityLabel">desiredExperience</text></g><g transform="translate(416.63372802734375,706.03125 )" id="entity-Socials-57e0bd81-9e0e-51f3-b750-eb2db0fe6f48"><rect height="123.015625" width="102.88470458984375" y="0" x="0" class="er entityBox"></rect><text style="dominant-baseline: middle; text-anchor: middle; font-size: 12px;" transform="translate(51.442352294921875,13.5078125)" y="0" x="0" id="text-entity-Socials-57e0bd81-9e0e-51f3-b750-eb2db0fe6f48" class="er entityLabel">Socials</text><rect height="24" width="37.4693603515625" y="27.015625" x="0" class="er attributeBoxOdd"></rect><text style="dominant-baseline: middle; font-size: 10.2px;" transform="translate(5,39.015625)" y="0" x="0" id="text-entity-Socials-57e0bd81-9e0e-51f3-b750-eb2db0fe6f48-attr-1-type" class="er entityLabel">string</text><rect height="24" width="65.41534423828125" y="27.015625" x="37.4693603515625" class="er attributeBoxOdd"></rect><text style="dominant-baseline: middle; font-size: 10.2px;" transform="translate(42.4693603515625,39.015625)" y="0" x="0" id="text-entity-Socials-57e0bd81-9e0e-51f3-b750-eb2db0fe6f48-attr-1-name" class="er entityLabel">linkedIn</text><rect height="24" width="37.4693603515625" y="51.015625" x="0" class="er attributeBoxEven"></rect><text style="dominant-baseline: middle; font-size: 10.2px;" transform="translate(5,63.015625)" y="0" x="0" id="text-entity-Socials-57e0bd81-9e0e-51f3-b750-eb2db0fe6f48-attr-2-type" class="er entityLabel">string</text><rect height="24" width="65.41534423828125" y="51.015625" x="37.4693603515625" class="er attributeBoxEven"></rect><text style="dominant-baseline: middle; font-size: 10.2px;" transform="translate(42.4693603515625,63.015625)" y="0" x="0" id="text-entity-Socials-57e0bd81-9e0e-51f3-b750-eb2db0fe6f48-attr-2-name" class="er entityLabel">twitter</text><rect height="24" width="37.4693603515625" y="75.015625" x="0" class="er attributeBoxOdd"></rect><text style="dominant-baseline: middle; font-size: 10.2px;" transform="translate(5,87.015625)" y="0" x="0" id="text-entity-Socials-57e0bd81-9e0e-51f3-b750-eb2db0fe6f48-attr-3-type" class="er entityLabel">string</text><rect height="24" width="65.41534423828125" y="75.015625" x="37.4693603515625" class="er attributeBoxOdd"></rect><text style="dominant-baseline: middle; font-size: 10.2px;" transform="translate(42.4693603515625,87.015625)" y="0" x="0" id="text-entity-Socials-57e0bd81-9e0e-51f3-b750-eb2db0fe6f48-attr-3-name" class="er entityLabel">facebook</text><rect height="24" width="37.4693603515625" y="99.015625" x="0" class="er attributeBoxEven"></rect><text style="dominant-baseline: middle; font-size: 10.2px;" transform="translate(5,111.015625)" y="0" x="0" id="text-entity-Socials-57e0bd81-9e0e-51f3-b750-eb2db0fe6f48-attr-4-type" class="er entityLabel">string</text><rect height="24" width="65.41534423828125" y="99.015625" x="37.4693603515625" class="er attributeBoxEven"></rect><text style="dominant-baseline: middle; font-size: 10.2px;" transform="translate(42.4693603515625,111.015625)" y="0" x="0" id="text-entity-Socials-57e0bd81-9e0e-51f3-b750-eb2db0fe6f48-attr-4-name" class="er entityLabel">crunchbase</text></g><g transform="translate(266.9076843261719,411.015625 )" id="entity-Founder-1f0611a9-a202-56bd-aed3-66cef72ea851"><rect height="123.015625" width="101.16839599609375" y="0" x="0" class="er entityBox"></rect><text style="dominant-baseline: middle; text-anchor: middle; font-size: 12px;" transform="translate(50.584197998046875,13.5078125)" y="0" x="0" id="text-entity-Founder-1f0611a9-a202-56bd-aed3-66cef72ea851" class="er entityLabel">Founder</text><rect height="24" width="42.3988037109375" y="27.015625" x="0" class="er attributeBoxOdd"></rect><text style="dominant-baseline: middle; font-size: 10.2px;" transform="translate(5,39.015625)" y="0" x="0" id="text-entity-Founder-1f0611a9-a202-56bd-aed3-66cef72ea851-attr-1-type" class="er entityLabel">string</text><rect height="24" width="58.76959228515625" y="27.015625" x="42.3988037109375" class="er attributeBoxOdd"></rect><text style="dominant-baseline: middle; font-size: 10.2px;" transform="translate(47.3988037109375,39.015625)" y="0" x="0" id="text-entity-Founder-1f0611a9-a202-56bd-aed3-66cef72ea851-attr-1-name" class="er entityLabel">name</text><rect height="24" width="42.3988037109375" y="51.015625" x="0" class="er attributeBoxEven"></rect><text style="dominant-baseline: middle; font-size: 10.2px;" transform="translate(5,63.015625)" y="0" x="0" id="text-entity-Founder-1f0611a9-a202-56bd-aed3-66cef72ea851-attr-2-type" class="er entityLabel">Socials</text><rect height="24" width="58.76959228515625" y="51.015625" x="42.3988037109375" class="er attributeBoxEven"></rect><text style="dominant-baseline: middle; font-size: 10.2px;" transform="translate(47.3988037109375,63.015625)" y="0" x="0" id="text-entity-Founder-1f0611a9-a202-56bd-aed3-66cef72ea851-attr-2-name" class="er entityLabel">socials</text><rect height="24" width="42.3988037109375" y="75.015625" x="0" class="er attributeBoxOdd"></rect><text style="dominant-baseline: middle; font-size: 10.2px;" transform="translate(5,87.015625)" y="0" x="0" id="text-entity-Founder-1f0611a9-a202-56bd-aed3-66cef72ea851-attr-3-type" class="er entityLabel">string</text><rect height="24" width="58.76959228515625" y="75.015625" x="42.3988037109375" class="er attributeBoxOdd"></rect><text style="dominant-baseline: middle; font-size: 10.2px;" transform="translate(47.3988037109375,87.015625)" y="0" x="0" id="text-entity-Founder-1f0611a9-a202-56bd-aed3-66cef72ea851-attr-3-name" class="er entityLabel">title</text><rect height="24" width="42.3988037109375" y="99.015625" x="0" class="er attributeBoxEven"></rect><text style="dominant-baseline: middle; font-size: 10.2px;" transform="translate(5,111.015625)" y="0" x="0" id="text-entity-Founder-1f0611a9-a202-56bd-aed3-66cef72ea851-attr-4-type" class="er entityLabel">string</text><rect height="24" width="58.76959228515625" y="99.015625" x="42.3988037109375" class="er attributeBoxEven"></rect><text style="dominant-baseline: middle; font-size: 10.2px;" transform="translate(47.3988037109375,111.015625)" y="0" x="0" id="text-entity-Founder-1f0611a9-a202-56bd-aed3-66cef72ea851-attr-4-name" class="er entityLabel">biography</text></g><g transform="translate(1030.2010803222656,411.015625 )" id="entity-LaunchPost-0035f11a-7f34-50e9-923d-3010bf3b99a0"><rect height="123.015625" width="161.142822265625" y="0" x="0" class="er entityBox"></rect><text style="dominant-baseline: middle; text-anchor: middle; font-size: 12px;" transform="translate(80.5714111328125,13.5078125)" y="0" x="0" id="text-entity-LaunchPost-0035f11a-7f34-50e9-923d-3010bf3b99a0" class="er entityLabel">LaunchPost</text><rect height="24" width="97.892822265625" y="27.015625" x="0" class="er attributeBoxOdd"></rect><text style="dominant-baseline: middle; font-size: 10.2px;" transform="translate(5,39.015625)" y="0" x="0" id="text-entity-LaunchPost-0035f11a-7f34-50e9-923d-3010bf3b99a0-attr-1-type" class="er entityLabel">string</text><rect height="24" width="63.25" y="27.015625" x="97.892822265625" class="er attributeBoxOdd"></rect><text style="dominant-baseline: middle; font-size: 10.2px;" transform="translate(102.892822265625,39.015625)" y="0" x="0" id="text-entity-LaunchPost-0035f11a-7f34-50e9-923d-3010bf3b99a0-attr-1-name" class="er entityLabel">title</text><rect height="24" width="97.892822265625" y="51.015625" x="0" class="er attributeBoxEven"></rect><text style="dominant-baseline: middle; font-size: 10.2px;" transform="translate(5,63.015625)" y="0" x="0" id="text-entity-LaunchPost-0035f11a-7f34-50e9-923d-3010bf3b99a0-attr-2-type" class="er entityLabel">string</text><rect height="24" width="63.25" y="51.015625" x="97.892822265625" class="er attributeBoxEven"></rect><text style="dominant-baseline: middle; font-size: 10.2px;" transform="translate(102.892822265625,63.015625)" y="0" x="0" id="text-entity-LaunchPost-0035f11a-7f34-50e9-923d-3010bf3b99a0-attr-2-name" class="er entityLabel">description</text><rect height="24" width="97.892822265625" y="75.015625" x="0" class="er attributeBoxOdd"></rect><text style="dominant-baseline: middle; font-size: 10.2px;" transform="translate(5,87.015625)" y="0" x="0" id="text-entity-LaunchPost-0035f11a-7f34-50e9-923d-3010bf3b99a0-attr-3-type" class="er entityLabel">string</text><rect height="24" width="63.25" y="75.015625" x="97.892822265625" class="er attributeBoxOdd"></rect><text style="dominant-baseline: middle; font-size: 10.2px;" transform="translate(102.892822265625,87.015625)" y="0" x="0" id="text-entity-LaunchPost-0035f11a-7f34-50e9-923d-3010bf3b99a0-attr-3-name" class="er entityLabel">link</text><rect height="24" width="97.892822265625" y="99.015625" x="0" class="er attributeBoxEven"></rect><text style="dominant-baseline: middle; font-size: 10.2px;" transform="translate(5,111.015625)" y="0" x="0" id="text-entity-LaunchPost-0035f11a-7f34-50e9-923d-3010bf3b99a0-attr-4-type" class="er entityLabel">LaunchPostDetails</text><rect height="24" width="63.25" y="99.015625" x="97.892822265625" class="er attributeBoxEven"></rect><text style="dominant-baseline: middle; font-size: 10.2px;" transform="translate(102.892822265625,111.015625)" y="0" x="0" id="text-entity-LaunchPost-0035f11a-7f34-50e9-923d-3010bf3b99a0-attr-4-name" class="er entityLabel">details</text></g><g transform="translate(1043.9521789550781,682.03125 )" id="entity-LaunchPostDetails-3d98c53e-ea8a-532b-875b-1b8068c86b00"><rect height="171.015625" width="133.640625" y="0" x="0" class="er entityBox"></rect><text style="dominant-baseline: middle; text-anchor: middle; font-size: 12px;" transform="translate(66.8203125,13.5078125)" y="0" x="0" id="text-entity-LaunchPostDetails-3d98c53e-ea8a-532b-875b-1b8068c86b00" class="er entityLabel">LaunchPostDetails</text><rect height="24" width="50.18238830566406" y="27.015625" x="0" class="er attributeBoxOdd"></rect><text style="dominant-baseline: middle; font-size: 10.2px;" transform="translate(5,39.015625)" y="0" x="0" id="text-entity-LaunchPostDetails-3d98c53e-ea8a-532b-875b-1b8068c86b00-attr-1-type" class="er entityLabel">string</text><rect height="24" width="83.45823669433594" y="27.015625" x="50.18238830566406" class="er attributeBoxOdd"></rect><text style="dominant-baseline: middle; font-size: 10.2px;" transform="translate(55.18238830566406,39.015625)" y="0" x="0" id="text-entity-LaunchPostDetails-3d98c53e-ea8a-532b-875b-1b8068c86b00-attr-1-name" class="er entityLabel">title</text><rect height="24" width="50.18238830566406" y="51.015625" x="0" class="er attributeBoxEven"></rect><text style="dominant-baseline: middle; font-size: 10.2px;" transform="translate(5,63.015625)" y="0" x="0" id="text-entity-LaunchPostDetails-3d98c53e-ea8a-532b-875b-1b8068c86b00-attr-2-type" class="er entityLabel">string</text><rect height="24" width="83.45823669433594" y="51.015625" x="50.18238830566406" class="er attributeBoxEven"></rect><text style="dominant-baseline: middle; font-size: 10.2px;" transform="translate(55.18238830566406,63.015625)" y="0" x="0" id="text-entity-LaunchPostDetails-3d98c53e-ea8a-532b-875b-1b8068c86b00-attr-2-name" class="er entityLabel">postBody</text><rect height="24" width="50.18238830566406" y="75.015625" x="0" class="er attributeBoxOdd"></rect><text style="dominant-baseline: middle; font-size: 10.2px;" transform="translate(5,87.015625)" y="0" x="0" id="text-entity-LaunchPostDetails-3d98c53e-ea8a-532b-875b-1b8068c86b00-attr-3-type" class="er entityLabel">number</text><rect height="24" width="83.45823669433594" y="75.015625" x="50.18238830566406" class="er attributeBoxOdd"></rect><text style="dominant-baseline: middle; font-size: 10.2px;" transform="translate(55.18238830566406,87.015625)" y="0" x="0" id="text-entity-LaunchPostDetails-3d98c53e-ea8a-532b-875b-1b8068c86b00-attr-3-name" class="er entityLabel">upVoteCount</text><rect height="24" width="50.18238830566406" y="99.015625" x="0" class="er attributeBoxEven"></rect><text style="dominant-baseline: middle; font-size: 10.2px;" transform="translate(5,111.015625)" y="0" x="0" id="text-entity-LaunchPostDetails-3d98c53e-ea8a-532b-875b-1b8068c86b00-attr-4-type" class="er entityLabel">string</text><rect height="24" width="83.45823669433594" y="99.015625" x="50.18238830566406" class="er attributeBoxEven"></rect><text style="dominant-baseline: middle; font-size: 10.2px;" transform="translate(55.18238830566406,111.015625)" y="0" x="0" id="text-entity-LaunchPostDetails-3d98c53e-ea8a-532b-875b-1b8068c86b00-attr-4-name" class="er entityLabel">author</text><rect height="24" width="50.18238830566406" y="123.015625" x="0" class="er attributeBoxOdd"></rect><text style="dominant-baseline: middle; font-size: 10.2px;" transform="translate(5,135.015625)" y="0" x="0" id="text-entity-LaunchPostDetails-3d98c53e-ea8a-532b-875b-1b8068c86b00-attr-5-type" class="er entityLabel">string</text><rect height="24" width="83.45823669433594" y="123.015625" x="50.18238830566406" class="er attributeBoxOdd"></rect><text style="dominant-baseline: middle; font-size: 10.2px;" transform="translate(55.18238830566406,135.015625)" y="0" x="0" id="text-entity-LaunchPostDetails-3d98c53e-ea8a-532b-875b-1b8068c86b00-attr-5-name" class="er entityLabel">timePostedAgo</text><rect height="24" width="50.18238830566406" y="147.015625" x="0" class="er attributeBoxEven"></rect><text style="dominant-baseline: middle; font-size: 10.2px;" transform="translate(5,159.015625)" y="0" x="0" id="text-entity-LaunchPostDetails-3d98c53e-ea8a-532b-875b-1b8068c86b00-attr-6-type" class="er entityLabel">string</text><rect height="24" width="83.45823669433594" y="147.015625" x="50.18238830566406" class="er attributeBoxEven"></rect><text style="dominant-baseline: middle; font-size: 10.2px;" transform="translate(55.18238830566406,159.015625)" y="0" x="0" id="text-entity-LaunchPostDetails-3d98c53e-ea8a-532b-875b-1b8068c86b00-attr-6-name" class="er entityLabel">elevatorLine</text></g><g transform="translate(568.0760803222656,387.015625 )" id="entity-AdditionalCompanyInfo-b424e888-4e6a-57d9-971f-eb7342217d7e"><rect height="171.015625" width="162.125" y="0" x="0" class="er entityBox"></rect><text style="dominant-baseline: middle; text-anchor: middle; font-size: 12px;" transform="translate(81.0625,13.5078125)" y="0" x="0" id="text-entity-AdditionalCompanyInfo-b424e888-4e6a-57d9-971f-eb7342217d7e" class="er entityLabel">AdditionalCompanyInfo</text><rect height="24" width="60.075469970703125" y="27.015625" x="0" class="er attributeBoxOdd"></rect><text style="dominant-baseline: middle; font-size: 10.2px;" transform="translate(5,39.015625)" y="0" x="0" id="text-entity-AdditionalCompanyInfo-b424e888-4e6a-57d9-971f-eb7342217d7e-attr-1-type" class="er entityLabel">string</text><rect height="24" width="102.04953002929688" y="27.015625" x="60.075469970703125" class="er attributeBoxOdd"></rect><text style="dominant-baseline: middle; font-size: 10.2px;" transform="translate(65.07546997070312,39.015625)" y="0" x="0" id="text-entity-AdditionalCompanyInfo-b424e888-4e6a-57d9-971f-eb7342217d7e-attr-1-name" class="er entityLabel">batch</text><rect height="24" width="60.075469970703125" y="51.015625" x="0" class="er attributeBoxEven"></rect><text style="dominant-baseline: middle; font-size: 10.2px;" transform="translate(5,63.015625)" y="0" x="0" id="text-entity-AdditionalCompanyInfo-b424e888-4e6a-57d9-971f-eb7342217d7e-attr-2-type" class="er entityLabel">string</text><rect height="24" width="102.04953002929688" y="51.015625" x="60.075469970703125" class="er attributeBoxEven"></rect><text style="dominant-baseline: middle; font-size: 10.2px;" transform="translate(65.07546997070312,63.015625)" y="0" x="0" id="text-entity-AdditionalCompanyInfo-b424e888-4e6a-57d9-971f-eb7342217d7e-attr-2-name" class="er entityLabel">slogan</text><rect height="24" width="60.075469970703125" y="75.015625" x="0" class="er attributeBoxOdd"></rect><text style="dominant-baseline: middle; font-size: 10.2px;" transform="translate(5,87.015625)" y="0" x="0" id="text-entity-AdditionalCompanyInfo-b424e888-4e6a-57d9-971f-eb7342217d7e-attr-3-type" class="er entityLabel">string</text><rect height="24" width="102.04953002929688" y="75.015625" x="60.075469970703125" class="er attributeBoxOdd"></rect><text style="dominant-baseline: middle; font-size: 10.2px;" transform="translate(65.07546997070312,87.015625)" y="0" x="0" id="text-entity-AdditionalCompanyInfo-b424e888-4e6a-57d9-971f-eb7342217d7e-attr-3-name" class="er entityLabel">operatingStatus</text><rect height="24" width="60.075469970703125" y="99.015625" x="0" class="er attributeBoxEven"></rect><text style="dominant-baseline: middle; font-size: 10.2px;" transform="translate(5,111.015625)" y="0" x="0" id="text-entity-AdditionalCompanyInfo-b424e888-4e6a-57d9-971f-eb7342217d7e-attr-4-type" class="er entityLabel">string[]</text><rect height="24" width="102.04953002929688" y="99.015625" x="60.075469970703125" class="er attributeBoxEven"></rect><text style="dominant-baseline: middle; font-size: 10.2px;" transform="translate(65.07546997070312,111.015625)" y="0" x="0" id="text-entity-AdditionalCompanyInfo-b424e888-4e6a-57d9-971f-eb7342217d7e-attr-4-name" class="er entityLabel">tags</text><rect height="24" width="60.075469970703125" y="123.015625" x="0" class="er attributeBoxOdd"></rect><text style="dominant-baseline: middle; font-size: 10.2px;" transform="translate(5,135.015625)" y="0" x="0" id="text-entity-AdditionalCompanyInfo-b424e888-4e6a-57d9-971f-eb7342217d7e-attr-5-type" class="er entityLabel">string</text><rect height="24" width="102.04953002929688" y="123.015625" x="60.075469970703125" class="er attributeBoxOdd"></rect><text style="dominant-baseline: middle; font-size: 10.2px;" transform="translate(65.07546997070312,135.015625)" y="0" x="0" id="text-entity-AdditionalCompanyInfo-b424e888-4e6a-57d9-971f-eb7342217d7e-attr-5-name" class="er entityLabel">websiteUrl</text><rect height="24" width="60.075469970703125" y="147.015625" x="0" class="er attributeBoxEven"></rect><text style="dominant-baseline: middle; font-size: 10.2px;" transform="translate(5,159.015625)" y="0" x="0" id="text-entity-AdditionalCompanyInfo-b424e888-4e6a-57d9-971f-eb7342217d7e-attr-6-type" class="er entityLabel">string</text><rect height="24" width="102.04953002929688" y="147.015625" x="60.075469970703125" class="er attributeBoxEven"></rect><text style="dominant-baseline: middle; font-size: 10.2px;" transform="translate(65.07546997070312,159.015625)" y="0" x="0" id="text-entity-AdditionalCompanyInfo-b424e888-4e6a-57d9-971f-eb7342217d7e-attr-6-name" class="er entityLabel">description</text></g><g transform="translate(830.2010803222656,423.015625 )" id="entity-NewsPost-2362cc82-35e1-5171-8caf-ea585a9d15d9"><rect height="99.015625" width="100" y="0" x="0" class="er entityBox"></rect><text style="dominant-baseline: middle; text-anchor: middle; font-size: 12px;" transform="translate(50,13.5078125)" y="0" x="0" id="text-entity-NewsPost-2362cc82-35e1-5171-8caf-ea585a9d15d9" class="er entityLabel">NewsPost</text><rect height="24" width="52.97218322753906" y="27.015625" x="0" class="er attributeBoxOdd"></rect><text style="dominant-baseline: middle; font-size: 10.2px;" transform="translate(5,39.015625)" y="0" x="0" id="text-entity-NewsPost-2362cc82-35e1-5171-8caf-ea585a9d15d9-attr-1-type" class="er entityLabel">string</text><rect height="24" width="47.02781677246094" y="27.015625" x="52.97218322753906" class="er attributeBoxOdd"></rect><text style="dominant-baseline: middle; font-size: 10.2px;" transform="translate(57.97218322753906,39.015625)" y="0" x="0" id="text-entity-NewsPost-2362cc82-35e1-5171-8caf-ea585a9d15d9-attr-1-name" class="er entityLabel">title</text><rect height="24" width="52.97218322753906" y="51.015625" x="0" class="er attributeBoxEven"></rect><text style="dominant-baseline: middle; font-size: 10.2px;" transform="translate(5,63.015625)" y="0" x="0" id="text-entity-NewsPost-2362cc82-35e1-5171-8caf-ea585a9d15d9-attr-2-type" class="er entityLabel">date</text><rect height="24" width="47.02781677246094" y="51.015625" x="52.97218322753906" class="er attributeBoxEven"></rect><text style="dominant-baseline: middle; font-size: 10.2px;" transform="translate(57.97218322753906,63.015625)" y="0" x="0" id="text-entity-NewsPost-2362cc82-35e1-5171-8caf-ea585a9d15d9-attr-2-name" class="er entityLabel">date</text><rect height="24" width="52.97218322753906" y="75.015625" x="0" class="er attributeBoxOdd"></rect><text style="dominant-baseline: middle; font-size: 10.2px;" transform="translate(5,87.015625)" y="0" x="0" id="text-entity-NewsPost-2362cc82-35e1-5171-8caf-ea585a9d15d9-attr-3-type" class="er entityLabel">string</text><rect height="24" width="47.02781677246094" y="75.015625" x="52.97218322753906" class="er attributeBoxOdd"></rect><text style="dominant-baseline: middle; font-size: 10.2px;" transform="translate(57.97218322753906,87.015625)" y="0" x="0" id="text-entity-NewsPost-2362cc82-35e1-5171-8caf-ea585a9d15d9-attr-3-name" class="er entityLabel">link</text></g><g transform="translate(459.4354553222656,20 )" id="entity-ScrapedCompanyInfo-35ad1103-93eb-52d3-929b-fc9bd99d1fe9"><rect height="243.015625" width="198.34375" y="0" x="0" class="er entityBox"></rect><text style="dominant-baseline: middle; text-anchor: middle; font-size: 12px;" transform="translate(99.171875,13.5078125)" y="0" x="0" id="text-entity-ScrapedCompanyInfo-35ad1103-93eb-52d3-929b-fc9bd99d1fe9" class="er entityLabel">ScrapedCompanyInfo</text><rect height="24" width="122.171875" y="27.015625" x="0" class="er attributeBoxOdd"></rect><text style="dominant-baseline: middle; font-size: 10.2px;" transform="translate(5,39.015625)" y="0" x="0" id="text-entity-ScrapedCompanyInfo-35ad1103-93eb-52d3-929b-fc9bd99d1fe9-attr-1-type" class="er entityLabel">string</text><rect height="24" width="76.171875" y="27.015625" x="122.171875" class="er attributeBoxOdd"></rect><text style="dominant-baseline: middle; font-size: 10.2px;" transform="translate(127.171875,39.015625)" y="0" x="0" id="text-entity-ScrapedCompanyInfo-35ad1103-93eb-52d3-929b-fc9bd99d1fe9-attr-1-name" class="er entityLabel">name</text><rect height="24" width="122.171875" y="51.015625" x="0" class="er attributeBoxEven"></rect><text style="dominant-baseline: middle; font-size: 10.2px;" transform="translate(5,63.015625)" y="0" x="0" id="text-entity-ScrapedCompanyInfo-35ad1103-93eb-52d3-929b-fc9bd99d1fe9-attr-2-type" class="er entityLabel">date</text><rect height="24" width="76.171875" y="51.015625" x="122.171875" class="er attributeBoxEven"></rect><text style="dominant-baseline: middle; font-size: 10.2px;" transform="translate(127.171875,63.015625)" y="0" x="0" id="text-entity-ScrapedCompanyInfo-35ad1103-93eb-52d3-929b-fc9bd99d1fe9-attr-2-name" class="er entityLabel">yearFounded</text><rect height="24" width="122.171875" y="75.015625" x="0" class="er attributeBoxOdd"></rect><text style="dominant-baseline: middle; font-size: 10.2px;" transform="translate(5,87.015625)" y="0" x="0" id="text-entity-ScrapedCompanyInfo-35ad1103-93eb-52d3-929b-fc9bd99d1fe9-attr-3-type" class="er entityLabel">number</text><rect height="24" width="76.171875" y="75.015625" x="122.171875" class="er attributeBoxOdd"></rect><text style="dominant-baseline: middle; font-size: 10.2px;" transform="translate(127.171875,87.015625)" y="0" x="0" id="text-entity-ScrapedCompanyInfo-35ad1103-93eb-52d3-929b-fc9bd99d1fe9-attr-3-name" class="er entityLabel">teamSize</text><rect height="24" width="122.171875" y="99.015625" x="0" class="er attributeBoxEven"></rect><text style="dominant-baseline: middle; font-size: 10.2px;" transform="translate(5,111.015625)" y="0" x="0" id="text-entity-ScrapedCompanyInfo-35ad1103-93eb-52d3-929b-fc9bd99d1fe9-attr-4-type" class="er entityLabel">AdditionalCompanyInfo</text><rect height="24" width="76.171875" y="99.015625" x="122.171875" class="er attributeBoxEven"></rect><text style="dominant-baseline: middle; font-size: 10.2px;" transform="translate(127.171875,111.015625)" y="0" x="0" id="text-entity-ScrapedCompanyInfo-35ad1103-93eb-52d3-929b-fc9bd99d1fe9-attr-4-name" class="er entityLabel">additionalInfo</text><rect height="24" width="122.171875" y="123.015625" x="0" class="er attributeBoxOdd"></rect><text style="dominant-baseline: middle; font-size: 10.2px;" transform="translate(5,135.015625)" y="0" x="0" id="text-entity-ScrapedCompanyInfo-35ad1103-93eb-52d3-929b-fc9bd99d1fe9-attr-5-type" class="er entityLabel">Socials</text><rect height="24" width="76.171875" y="123.015625" x="122.171875" class="er attributeBoxOdd"></rect><text style="dominant-baseline: middle; font-size: 10.2px;" transform="translate(127.171875,135.015625)" y="0" x="0" id="text-entity-ScrapedCompanyInfo-35ad1103-93eb-52d3-929b-fc9bd99d1fe9-attr-5-name" class="er entityLabel">socials</text><rect height="24" width="122.171875" y="147.015625" x="0" class="er attributeBoxEven"></rect><text style="dominant-baseline: middle; font-size: 10.2px;" transform="translate(5,159.015625)" y="0" x="0" id="text-entity-ScrapedCompanyInfo-35ad1103-93eb-52d3-929b-fc9bd99d1fe9-attr-6-type" class="er entityLabel">Job[]</text><rect height="24" width="76.171875" y="147.015625" x="122.171875" class="er attributeBoxEven"></rect><text style="dominant-baseline: middle; font-size: 10.2px;" transform="translate(127.171875,159.015625)" y="0" x="0" id="text-entity-ScrapedCompanyInfo-35ad1103-93eb-52d3-929b-fc9bd99d1fe9-attr-6-name" class="er entityLabel">jobs</text><rect height="24" width="122.171875" y="171.015625" x="0" class="er attributeBoxOdd"></rect><text style="dominant-baseline: middle; font-size: 10.2px;" transform="translate(5,183.015625)" y="0" x="0" id="text-entity-ScrapedCompanyInfo-35ad1103-93eb-52d3-929b-fc9bd99d1fe9-attr-7-type" class="er entityLabel">Founder[]</text><rect height="24" width="76.171875" y="171.015625" x="122.171875" class="er attributeBoxOdd"></rect><text style="dominant-baseline: middle; font-size: 10.2px;" transform="translate(127.171875,183.015625)" y="0" x="0" id="text-entity-ScrapedCompanyInfo-35ad1103-93eb-52d3-929b-fc9bd99d1fe9-attr-7-name" class="er entityLabel">founders</text><rect height="24" width="122.171875" y="195.015625" x="0" class="er attributeBoxEven"></rect><text style="dominant-baseline: middle; font-size: 10.2px;" transform="translate(5,207.015625)" y="0" x="0" id="text-entity-ScrapedCompanyInfo-35ad1103-93eb-52d3-929b-fc9bd99d1fe9-attr-8-type" class="er entityLabel">NewsPost[]</text><rect height="24" width="76.171875" y="195.015625" x="122.171875" class="er attributeBoxEven"></rect><text style="dominant-baseline: middle; font-size: 10.2px;" transform="translate(127.171875,207.015625)" y="0" x="0" id="text-entity-ScrapedCompanyInfo-35ad1103-93eb-52d3-929b-fc9bd99d1fe9-attr-8-name" class="er entityLabel">newsPosts</text><rect height="24" width="122.171875" y="219.015625" x="0" class="er attributeBoxOdd"></rect><text style="dominant-baseline: middle; font-size: 10.2px;" transform="translate(5,231.015625)" y="0" x="0" id="text-entity-ScrapedCompanyInfo-35ad1103-93eb-52d3-929b-fc9bd99d1fe9-attr-9-type" class="er entityLabel">LaunchPost[]</text><rect height="24" width="76.171875" y="219.015625" x="122.171875" class="er attributeBoxOdd"></rect><text style="dominant-baseline: middle; font-size: 10.2px;" transform="translate(127.171875,231.015625)" y="0" x="0" id="text-entity-ScrapedCompanyInfo-35ad1103-93eb-52d3-929b-fc9bd99d1fe9-attr-9-name" class="er entityLabel">launchPosts</text></g><rect height="17.015625" width="20.02734375" y="632.4842529296875" x="330.1395263671875" class="er relationshipLabelBox"></rect><text style="text-anchor: middle; dominant-baseline: middle; font-size: 12px;" y="640.9920654296875" x="340.1531982421875" id="rel38" class="er relationshipLabel">has</text><rect height="17.015625" width="20.02734375" y="314.2749938964844" x="635.827392578125" class="er relationshipLabelBox"></rect><text style="text-anchor: middle; dominant-baseline: middle; font-size: 12px;" y="322.7828063964844" x="645.841064453125" id="rel39" class="er relationshipLabel">has</text><rect height="17.015625" width="20.02734375" y="473.945556640625" x="458.06231689453125" class="er relationshipLabelBox"></rect><text style="text-anchor: middle; dominant-baseline: middle; font-size: 12px;" y="482.453369140625" x="468.07598876953125" id="rel40" class="er relationshipLabel">has</text><rect height="17.015640258789062" width="32.935546875" y="243.9615249633789" x="245.051025390625" class="er relationshipLabelBox"></rect><text style="text-anchor: middle; dominant-baseline: middle; font-size: 12px;" y="252.46934509277344" x="261.518798828125" id="rel41" class="er relationshipLabel">offers</text><rect height="17.015625" width="46.60546875" y="283.9628601074219" x="334.72418212890625" class="er relationshipLabelBox"></rect><text style="text-anchor: middle; dominant-baseline: middle; font-size: 12px;" y="292.4706726074219" x="358.02691650390625" id="rel42" class="er relationshipLabel">includes</text><rect height="17.015625" width="46.72265625" y="271.53033447265625" x="782.0094604492188" class="er relationshipLabelBox"></rect><text style="text-anchor: middle; dominant-baseline: middle; font-size: 12px;" y="280.03814697265625" x="805.3707885742188" id="rel43" class="er relationshipLabel">features</text><rect height="17.015625" width="53.91796875" y="246.9910888671875" x="887.8290405273438" class="er relationshipLabelBox"></rect><text style="text-anchor: middle; dominant-baseline: middle; font-size: 12px;" y="255.4989013671875" x="914.7880249023438" id="rel44" class="er relationshipLabel">publishes</text><rect height="17.015625" width="47.66015625" y="599.523193359375" x="1086.94189453125" class="er relationshipLabelBox"></rect><text style="text-anchor: middle; dominant-baseline: middle; font-size: 12px;" y="608.031005859375" x="1110.77197265625" id="rel45" class="er relationshipLabel">contains</text></svg>