<?xml version="1.0" encoding="us-ascii" standalone="no"?><svg xmlns="http://www.w3.org/2000/svg" xmlns:xlink="http://www.w3.org/1999/xlink" contentStyleType="text/css" height="338.5417px" preserveAspectRatio="none" style="width:816px;height:338px;" version="1.1" viewBox="0 0 816 338" width="816.6667px" zoomAndPan="magnify"><defs><linearGradient id="gnyfg2qgbaayq0" x1="50%" x2="50%" y1="0%" y2="100%"><stop offset="0%" stop-color="#B8B8B8"/><stop offset="100%" stop-color="#6B6B6B"/></linearGradient><linearGradient id="gnyfg2qgbaayq1" x1="50%" x2="50%" y1="0%" y2="100%"><stop offset="0%" stop-color="#7C9AB9"/><stop offset="100%" stop-color="#304D6D"/></linearGradient></defs><g><!--cluster Domain Shopping Site--><g id="cluster_Domain Shopping Site"><path d="M20.8333,90.9167 L191.6667,90.9167 A6.25,6.25 0 0 1 195.8333,95.0833 L203.125,122.1341 L800,122.1341 A4.1667,4.1667 0 0 1 804.1667,126.3008 L804.1667,322.1042 A4.1667,4.1667 0 0 1 800,326.2708 L20.8333,326.2708 A4.1667,4.1667 0 0 1 16.6667,322.1042 L16.6667,95.0833 A4.1667,4.1667 0 0 1 20.8333,90.9167 " fill="url(#gnyfg2qgbaayq0)" style="stroke:#446E9B;stroke-width:2.0833333333333335;"/><line style="stroke:#446E9B;stroke-width:2.0833333333333335;" x1="16.6667" x2="203.125" y1="122.1341" y2="122.1341"/><text fill="#446E9B" font-family="Verdana" font-size="12.5" font-weight="bold" lengthAdjust="spacing" textLength="162.5" x="26.0417" y="109.8111">Domain Shopping Site</text></g><!--entity Challenge--><g id="elem_Challenge"><rect fill="url(#gnyfg2qgbaayq1)" height="56.2174" rx="4.1667" ry="4.1667" style="stroke:#304D6D;stroke-width:1.0416666666666667;" width="116.6667" x="276.0417" y="134.6667"/><rect fill="url(#gnyfg2qgbaayq1)" height="10.4167" style="stroke:#304D6D;stroke-width:1.0416666666666667;" width="15.625" x="371.875" y="139.875"/><rect fill="url(#gnyfg2qgbaayq1)" height="2.0833" style="stroke:#304D6D;stroke-width:1.0416666666666667;" width="4.1667" x="369.7917" y="141.9583"/><rect fill="url(#gnyfg2qgbaayq1)" height="2.0833" style="stroke:#304D6D;stroke-width:1.0416666666666667;" width="4.1667" x="369.7917" y="146.125"/><text fill="#FFFFFF" font-family="Verdana" font-size="12.5" lengthAdjust="spacing" textLength="64.5833" x="296.875" y="172.3111">Challenge</text></g><!--entity DomainInput--><g id="elem_DomainInput"><rect fill="url(#gnyfg2qgbaayq1)" height="56.2174" rx="4.1667" ry="4.1667" style="stroke:#304D6D;stroke-width:1.0416666666666667;" width="134.375" x="652.6042" y="134.6667"/><rect fill="url(#gnyfg2qgbaayq1)" height="10.4167" style="stroke:#304D6D;stroke-width:1.0416666666666667;" width="15.625" x="766.1458" y="139.875"/><rect fill="url(#gnyfg2qgbaayq1)" height="2.0833" style="stroke:#304D6D;stroke-width:1.0416666666666667;" width="4.1667" x="764.0625" y="141.9583"/><rect fill="url(#gnyfg2qgbaayq1)" height="2.0833" style="stroke:#304D6D;stroke-width:1.0416666666666667;" width="4.1667" x="764.0625" y="146.125"/><text fill="#FFFFFF" font-family="Verdana" font-size="12.5" lengthAdjust="spacing" textLength="82.2917" x="673.4375" y="172.3111">DomainInput</text></g><!--entity SortAndFilterOptions--><g id="elem_SortAndFilterOptions"><rect fill="url(#gnyfg2qgbaayq1)" height="56.2174" rx="4.1667" ry="4.1667" style="stroke:#304D6D;stroke-width:1.0416666666666667;" width="186.4583" x="429.6875" y="134.6667"/><rect fill="url(#gnyfg2qgbaayq1)" height="10.4167" style="stroke:#304D6D;stroke-width:1.0416666666666667;" width="15.625" x="595.3125" y="139.875"/><rect fill="url(#gnyfg2qgbaayq1)" height="2.0833" style="stroke:#304D6D;stroke-width:1.0416666666666667;" width="4.1667" x="593.2292" y="141.9583"/><rect fill="url(#gnyfg2qgbaayq1)" height="2.0833" style="stroke:#304D6D;stroke-width:1.0416666666666667;" width="4.1667" x="593.2292" y="146.125"/><text fill="#FFFFFF" font-family="Verdana" font-size="12.5" lengthAdjust="spacing" textLength="134.375" x="450.5208" y="172.3111">SortAndFilterOptions</text></g><!--entity DomainList--><g id="elem_DomainList"><rect fill="url(#gnyfg2qgbaayq1)" height="56.2174" rx="4.1667" ry="4.1667" style="stroke:#304D6D;stroke-width:1.0416666666666667;" width="122.9167" x="272.9167" y="253.3854"/><rect fill="url(#gnyfg2qgbaayq1)" height="10.4167" style="stroke:#304D6D;stroke-width:1.0416666666666667;" width="15.625" x="375" y="258.5938"/><rect fill="url(#gnyfg2qgbaayq1)" height="2.0833" style="stroke:#304D6D;stroke-width:1.0416666666666667;" width="4.1667" x="372.9167" y="260.6771"/><rect fill="url(#gnyfg2qgbaayq1)" height="2.0833" style="stroke:#304D6D;stroke-width:1.0416666666666667;" width="4.1667" x="372.9167" y="264.8438"/><text fill="#FFFFFF" font-family="Verdana" font-size="12.5" lengthAdjust="spacing" textLength="70.8333" x="293.75" y="291.0299">DomainList</text></g><!--entity Actions--><g id="elem_Actions"><rect fill="url(#gnyfg2qgbaayq1)" height="56.2174" rx="4.1667" ry="4.1667" style="stroke:#304D6D;stroke-width:1.0416666666666667;" width="100" x="432.2917" y="253.3854"/><rect fill="url(#gnyfg2qgbaayq1)" height="10.4167" style="stroke:#304D6D;stroke-width:1.0416666666666667;" width="15.625" x="511.4583" y="258.5938"/><rect fill="url(#gnyfg2qgbaayq1)" height="2.0833" style="stroke:#304D6D;stroke-width:1.0416666666666667;" width="4.1667" x="509.375" y="260.6771"/><rect fill="url(#gnyfg2qgbaayq1)" height="2.0833" style="stroke:#304D6D;stroke-width:1.0416666666666667;" width="4.1667" x="509.375" y="264.8438"/><text fill="#FFFFFF" font-family="Verdana" font-size="12.5" lengthAdjust="spacing" textLength="47.9167" x="453.125" y="291.0299">Actions</text></g><!--entity DomainItem--><g id="elem_DomainItem"><rect fill="url(#gnyfg2qgbaayq1)" height="56.2174" rx="4.1667" ry="4.1667" style="stroke:#304D6D;stroke-width:1.0416666666666667;" width="129.1667" x="611.4583" y="253.3854"/><rect fill="url(#gnyfg2qgbaayq1)" height="10.4167" style="stroke:#304D6D;stroke-width:1.0416666666666667;" width="15.625" x="719.7917" y="258.5938"/><rect fill="url(#gnyfg2qgbaayq1)" height="2.0833" style="stroke:#304D6D;stroke-width:1.0416666666666667;" width="4.1667" x="717.7083" y="260.6771"/><rect fill="url(#gnyfg2qgbaayq1)" height="2.0833" style="stroke:#304D6D;stroke-width:1.0416666666666667;" width="4.1667" x="717.7083" y="264.8438"/><text fill="#FFFFFF" font-family="Verdana" font-size="12.5" lengthAdjust="spacing" textLength="77.0833" x="632.2917" y="291.0299">DomainItem</text></g><!--entity checkDomainAvailability--><g id="elem_checkDomainAvailability"><rect fill="url(#gnyfg2qgbaayq1)" height="56.2174" rx="4.1667" ry="4.1667" style="stroke:#304D6D;stroke-width:1.0416666666666667;" width="206.25" x="33.3333" y="134.6667"/><rect fill="url(#gnyfg2qgbaayq1)" height="10.4167" style="stroke:#304D6D;stroke-width:1.0416666666666667;" width="15.625" x="218.75" y="139.875"/><rect fill="url(#gnyfg2qgbaayq1)" height="2.0833" style="stroke:#304D6D;stroke-width:1.0416666666666667;" width="4.1667" x="216.6667" y="141.9583"/><rect fill="url(#gnyfg2qgbaayq1)" height="2.0833" style="stroke:#304D6D;stroke-width:1.0416666666666667;" width="4.1667" x="216.6667" y="146.125"/><text fill="#FFFFFF" font-family="Verdana" font-size="12.5" lengthAdjust="spacing" textLength="154.1667" x="54.1667" y="172.3111">checkDomainAvailability</text></g><!--link Challenge to DomainInput--><g id="link_Challenge_DomainInput"><path d="M349.2188,134.1979 C365.0625,107.1563 392.9167,68.2708 429.6875,51.3333 C504.9583,16.6667 540.1667,18.2396 616.1458,51.3333 C654.9063,68.2188 682.2879,102.2935 699.9338,129.3976 " fill="none" id="Challenge-to-DomainInput" style="stroke:#446E9B;stroke-width:3.125;"/><polygon fill="#446E9B" points="703.3438,134.6354,701.7206,124.5054,700.5021,130.2706,694.7369,129.0521,703.3438,134.6354" style="stroke:#446E9B;stroke-width:3.125;"/></g><!--link Challenge to SortAndFilterOptions--><g id="link_Challenge_SortAndFilterOptions"><path d="M392.9271,162.7813 C405.1146,162.7813 411.0521,162.7813 423.2396,162.7813 " fill="none" id="Challenge-to-SortAndFilterOptions" style="stroke:#446E9B;stroke-width:3.125;"/><polygon fill="#446E9B" points="429.4896,162.7813,420.1146,158.6146,424.2813,162.7813,420.1146,166.9479,429.4896,162.7813" style="stroke:#446E9B;stroke-width:3.125;"/></g><!--link Challenge to DomainList--><g id="link_Challenge_DomainList"><path d="M334.375,191.1667 C334.375,209.75 334.375,227.9896 334.375,246.625 " fill="none" id="Challenge-to-DomainList" style="stroke:#446E9B;stroke-width:3.125;"/><polygon fill="#446E9B" points="334.375,252.875,338.5417,243.5,334.375,247.6667,330.2083,243.5,334.375,252.875" style="stroke:#446E9B;stroke-width:3.125;"/></g><!--link Challenge to Actions--><g id="link_Challenge_Actions"><path d="M369.0521,191.1667 C392.625,209.75 418.7804,230.3688 442.4054,249.0043 " fill="none" id="Challenge-to-Actions" style="stroke:#446E9B;stroke-width:3.125;"/><polygon fill="#446E9B" points="447.3125,252.875,442.5323,243.7975,443.2232,249.6494,437.3713,250.3403,447.3125,252.875" style="stroke:#446E9B;stroke-width:3.125;"/></g><!--link DomainInput to DomainItem--><g id="link_DomainInput_DomainItem"><path d="M709.5313,191.1667 C702.5625,209.75 695.5699,228.3877 688.5803,247.0231 " fill="none" id="DomainInput-to-DomainItem" style="stroke:#446E9B;stroke-width:3.125;"/><polygon fill="#446E9B" points="686.3854,252.875,693.579,245.5604,688.2145,247.9984,685.7765,242.6339,686.3854,252.875" style="stroke:#446E9B;stroke-width:3.125;"/></g><!--link DomainList to DomainItem--><g id="link_DomainList_DomainItem"><path d="M370.9479,252.9063 C388.5938,240.8854 410.6979,228.2917 432.8125,222.1354 C498.1354,203.9688 568.5045,227.333 617.942,250.4372 " fill="none" id="DomainList-to-DomainItem" style="stroke:#446E9B;stroke-width:3.125;"/><polygon fill="#446E9B" points="623.6042,253.0833,616.875,245.3393,618.8857,250.8782,613.3468,252.8889,623.6042,253.0833" style="stroke:#446E9B;stroke-width:3.125;"/></g><!--reverse link checkDomainAvailability to Challenge--><g id="link_checkDomainAvailability_Challenge"><path d="M246.3021,162.7813 C258.2188,162.7813 263.8854,162.7813 275.7917,162.7813 " fill="none" id="checkDomainAvailability-backto-Challenge" style="stroke:#446E9B;stroke-width:3.125;"/><polygon fill="#446E9B" points="240.0521,162.7813,249.4271,166.9479,245.2604,162.7813,249.4271,158.6146,240.0521,162.7813" style="stroke:#446E9B;stroke-width:3.125;"/></g><!--SRC=[TT312e90483X-px5vDrN2AG8XA23H_6mhTFku3gxw5H4zEw94ahYRGuV_mop4uSjGX-rGQ-lIWr3eor2SWoj9eR2XHY9BHGacC1R0PG7fxr7jbX1sf5rakwXd7pEyIxL9Yf29ndN9_A2tIKA1UvNkWvFdejdwcMJP6PEB0_uZ-I2xGADpVNjFxJSvF4s4kFGD9FB7fg6Nv4dULNgexu0]--></g></svg>